<svg width="1920" height="2043" viewBox="0 0 1920 2043" fill="none" xmlns="http://www.w3.org/2000/svg">
<circle cx="1630.97" cy="1593.32" r="49.9429" fill="#24282D"/>
<circle cx="952.58" cy="49.9429" r="49.9429" fill="#24282D"/>
<circle cx="309.474" cy="328.949" r="49.9429" fill="#24282D"/>
<circle cx="1626.15" cy="344.359" r="49.9429" fill="#24282D"/>
<circle cx="309.474" cy="1599.47" r="49.9429" fill="#24282D"/>
<circle cx="1869.19" cy="992.838" r="49.9429" fill="#24282D"/>
<path fill-rule="evenodd" clip-rule="evenodd" d="M871.871 1582.94C825.479 1582.94 787.871 1620.54 787.871 1666.94V1679.77H1130.86V1666.94C1130.86 1620.54 1093.25 1582.94 1046.86 1582.94H871.871ZM1130.86 1702.69H787.871V1801.1H1130.86V1702.69ZM787.871 1922.42V1824.02H1130.86V1922.42H787.871ZM1130.86 1945.34H787.871V1958.17C787.871 2004.57 825.479 2042.17 871.871 2042.17H1046.86C1093.25 2042.17 1130.86 2004.57 1130.86 1958.17V1945.34Z" fill="#24282D"/>
<path fill-rule="evenodd" clip-rule="evenodd" d="M889.506 1314.91C912.043 1315.78 934.823 1316.32 957.819 1316.5C983.038 1316.7 1008.01 1316.47 1032.68 1315.83L1025.63 1351.01C1003.15 1351.51 980.44 1351.68 957.542 1351.5C936.9 1351.34 916.417 1350.89 896.115 1350.18L889.506 1314.91ZM868.99 1314.01C670.123 1304.41 491.207 1268.3 352.747 1215.25C352.982 1216.96 353.104 1218.7 353.104 1220.47C353.104 1231.44 348.439 1241.32 340.985 1248.23C485.408 1303.44 670.854 1340.24 875.614 1349.36L868.99 1314.01ZM1046.14 1350.45L1053.21 1315.19C1252.11 1308.13 1431.19 1274.27 1569.69 1222.88C1569.43 1224.67 1569.3 1226.5 1569.3 1228.36C1569.3 1239.23 1573.88 1249.03 1581.22 1255.93C1436.7 1309.45 1251.02 1343.95 1046.14 1350.45ZM292.776 1190.05C223.032 1157.91 167.989 1121.59 129.868 1083.32C87.6389 1040.92 68.068 998.21 68.3947 956.842C68.7214 915.473 88.9642 873.082 131.858 831.351C170.356 793.897 225.552 758.645 295.226 727.735C284.989 721.327 278.038 710.157 277.476 697.329C126.594 765.036 34.1902 855.963 33.3958 956.565C32.5942 1058.08 125.22 1151.22 277.454 1221.53C277.444 1221.18 277.44 1220.83 277.44 1220.47C277.44 1208.01 283.471 1196.95 292.776 1190.05ZM1644.93 1229.91C1795.1 1162.26 1887.02 1071.54 1887.81 971.209C1888.61 869.623 1795.86 776.426 1643.44 706.1C1639.68 718.955 1629.28 728.975 1616.21 732.196C1691.76 765.677 1751.02 803.97 1791.34 844.456C1833.57 886.858 1853.14 929.564 1852.81 970.932C1852.48 1012.3 1832.24 1054.69 1789.35 1096.42C1751.6 1133.15 1697.79 1167.76 1630.02 1198.24C1639.1 1205.15 1644.96 1216.07 1644.96 1228.36C1644.96 1228.88 1644.95 1229.39 1644.93 1229.91ZM963.664 576.276C1197.75 578.124 1411.29 616.077 1573.99 677.188C1571 682.604 1569.3 688.833 1569.3 695.46C1569.3 702.58 1571.26 709.241 1574.68 714.928C1415.23 652.7 1200.74 613.149 963.388 611.275C726.762 609.406 512.27 645.338 352.01 704.713C352.725 701.808 353.104 698.77 353.104 695.644C353.104 686.004 349.499 677.206 343.562 670.526C508.23 610.182 725.619 574.396 963.664 576.276Z" fill="#24282D"/>
<path fill-rule="evenodd" clip-rule="evenodd" d="M714.518 323.417C650.733 478.907 612.765 687.112 608.367 908.379C607.627 913.499 607.237 918.739 607.226 924.071C607.195 939.054 610.152 953.317 615.513 966.249L607.986 966.299L572.987 966.533C572.909 954.842 572.923 943.173 573.029 931.532C575.15 698.309 614.007 476.216 682.136 310.134C753.666 135.761 851.605 37.4141 954.407 36.7273C1057.21 36.0404 1156.45 133.07 1230.31 306.471C1300.65 471.628 1342.47 693.182 1347.71 926.356C1347.97 937.994 1348.14 949.662 1348.22 961.353L1313.22 961.587L1305.02 961.642C1311.68 947.503 1315.41 931.592 1315.38 914.773C1315.36 904.615 1313.96 894.793 1311.38 885.497C1302.45 671.13 1262.15 470.566 1198.11 320.186C1162.32 236.165 1121.31 172.958 1078.74 131.343C1036.31 89.8523 994.199 71.4622 954.64 71.7265C915.082 71.9908 873.224 90.9419 831.345 132.996C789.339 175.176 749.177 238.925 714.518 323.417ZM987.129 928.765L960.368 928.944L935.495 929.11L935.422 964.111L960.602 963.943L987.201 963.765L987.129 928.765Z" fill="#24282D"/>
<path fill-rule="evenodd" clip-rule="evenodd" d="M1249.52 341.561C1085.89 406.935 893.852 535.364 713.599 712.284C546.881 875.919 421.45 1050.41 349.42 1204.17C344.075 1192.99 333.407 1184.85 320.698 1183.03C395.308 1026.26 522.342 850.964 689.083 687.306C1054.55 328.592 1472.39 161.652 1622.35 314.434C1692.49 385.902 1691.6 514.67 1633.37 668.209C1626.57 661.657 1617.32 657.628 1607.13 657.628C1604.57 657.628 1602.08 657.881 1599.67 658.364C1626.42 588.475 1640.23 525.576 1641.04 472.624C1641.95 412.787 1626.35 368.475 1597.37 338.951C1568.39 309.427 1524.38 293.004 1464.54 292.796C1404.51 292.587 1331.41 308.844 1249.52 341.561ZM291.582 1249.97C229.677 1407.78 227.24 1540.48 298.859 1613.45C403.023 1719.58 636.44 1671.44 891.776 1511.91C891.822 1497.91 891.903 1483.54 891.997 1470.33C815.498 1519.58 741.041 1558.62 671.689 1586.32C589.8 1619.04 516.694 1635.3 456.673 1635.09C396.829 1634.88 352.816 1618.46 323.838 1588.93C294.86 1559.41 279.261 1515.1 280.17 1455.26C281.024 1399.06 296.528 1331.65 326.615 1256.58C323.034 1257.7 319.224 1258.31 315.272 1258.31C306.305 1258.31 298.066 1255.19 291.582 1249.97ZM912.099 1457.18C911.994 1469.97 911.895 1484.55 911.827 1499.18C944.153 1478.34 976.783 1455.75 1009.5 1431.49L1019.88 1379.73C983.772 1407.65 947.744 1433.5 912.099 1457.18ZM1232.13 1240.58C1166.99 1304.51 1100.18 1362.36 1033.53 1413.38L1044.09 1360.7C1098.93 1316.91 1153.8 1268.42 1207.61 1215.6C1377.12 1049.23 1503.94 871.632 1575.36 716.013C1581.9 726.103 1593.12 732.88 1605.94 733.274C1532.15 892.953 1402.99 1072.88 1232.13 1240.58Z" fill="#24282D"/>
<path fill-rule="evenodd" clip-rule="evenodd" d="M712.901 1214.91C544.42 1048.62 418.367 871.306 347.254 715.863C340.805 726.042 329.63 732.931 316.815 733.445C390.312 892.84 518.621 1072.34 688.315 1239.82C753.712 1304.37 820.812 1362.74 887.767 1414.21L877.993 1362.05C822.612 1317.7 767.213 1268.52 712.901 1214.91ZM901.869 1380.88L911.478 1432.15C944.137 1456.47 976.71 1479.12 1008.98 1500.02C1008.91 1485.4 1008.82 1470.81 1008.71 1457.96C973.372 1434.38 937.658 1408.65 901.869 1380.88ZM1620.54 1615.29C1516.23 1720.97 1283.49 1672.48 1029.03 1512.81C1028.99 1498.82 1028.91 1484.43 1028.81 1471.17C1104.82 1520.33 1178.82 1559.35 1247.79 1587.12C1329.58 1620.07 1402.65 1636.53 1462.67 1636.49C1522.51 1636.45 1566.57 1620.15 1595.63 1590.7C1624.69 1561.26 1640.41 1516.99 1639.67 1457.15C1638.99 1402.51 1624.5 1337.25 1596.24 1264.6C1599.69 1265.64 1603.34 1266.19 1607.13 1266.19C1616.21 1266.19 1624.55 1262.99 1631.07 1257.65C1690.33 1413.07 1691.48 1543.42 1620.54 1615.29ZM1573.5 1211.02C1579.14 1200.09 1589.96 1192.27 1602.7 1190.78C1528.94 1032.3 1401.29 854.269 1232.9 688.061C868.423 328.332 451.052 160.23 300.67 312.595C230.056 384.14 230.867 513.624 289.332 668.105C296.105 661.723 305.232 657.812 315.272 657.812C317.984 657.812 320.628 658.097 323.178 658.639C296.1 587.854 282.204 524.204 281.54 470.732C280.798 410.893 296.52 366.624 325.58 337.181C354.641 307.737 398.699 291.437 458.543 291.396C518.565 291.354 591.625 307.813 673.423 340.758C836.867 406.588 1028.55 535.551 1208.31 712.971C1376.43 878.902 1502.3 1055.81 1573.5 1211.02Z" fill="#24282D"/>
<circle cx="1630.97" cy="1593.32" r="49.9429" fill="#24282D"/>
<circle cx="952.58" cy="49.9429" r="49.9429" fill="#24282D"/>
<circle cx="309.474" cy="328.949" r="49.9429" fill="#24282D"/>
<circle cx="1626.15" cy="344.359" r="49.9429" fill="#24282D"/>
<circle cx="309.474" cy="1599.47" r="49.9429" fill="#24282D"/>
<circle cx="1869.19" cy="992.838" r="49.9429" fill="#24282D"/>
<circle cx="50.6344" cy="971.529" r="49.9429" fill="#24282D"/>
<path fill-rule="evenodd" clip-rule="evenodd" d="M892.108 1455.69C856.547 1465.47 830.422 1498.03 830.422 1536.7V1678.5C830.422 1678.92 830.425 1679.35 830.431 1679.77H1088.3C1088.3 1679.35 1088.31 1678.92 1088.31 1678.5V1536.7C1088.31 1498.79 1063.19 1466.74 1028.7 1456.29C1029.06 1500.37 1029.37 1567.12 1028.51 1583.52L1008.54 1582.47C1009.39 1566.31 1009.04 1496.9 1008.67 1452.81C1007.22 1452.73 1005.77 1452.7 1004.31 1452.7H914.422C913.657 1452.7 912.894 1452.71 912.134 1452.73C911.758 1496.81 911.411 1566.3 912.262 1582.47L892.289 1583.52C891.422 1567.05 891.743 1499.76 892.108 1455.69ZM1084.77 1702.69H833.955C844.341 1737.29 876.437 1762.5 914.422 1762.5H1004.31C1042.29 1762.5 1074.39 1737.29 1084.77 1702.69Z" fill="#24282D"/>
<path fill-rule="evenodd" clip-rule="evenodd" d="M987.579 1144.72H935.05L934.999 1169.02L934.998 1169.02C934.999 1169.19 934.999 1169.36 934.998 1169.53C934.913 1210.47 912.546 1245.93 879.874 1263.51L912.106 1435.5L912.287 1436.46L912.277 1437.44C911.867 1478.47 911.306 1564.27 912.264 1582.47L892.291 1583.52C891.299 1564.66 891.863 1479.19 892.268 1438.22L860.983 1271.29C852.093 1273.91 842.709 1275.3 833.012 1275.28C776.808 1275.16 731.344 1227.63 731.466 1169.11C731.466 1168.94 731.467 1168.77 731.468 1168.6L730.935 1168.6L730.966 1153.42C729.782 1153.47 728.591 1153.49 727.395 1153.49C714.368 1153.47 702.05 1150.31 691.094 1144.72H518.34L924.452 1679.77H994.282L1400.39 1144.72H1191.64L1191.68 1159.3L1191.14 1159.3C1191.14 1159.47 1191.14 1159.64 1191.14 1159.81C1191.27 1218.33 1145.8 1265.86 1089.6 1265.98C1080.67 1266 1072.01 1264.82 1063.75 1262.59L1028.54 1438.29C1028.94 1479.28 1029.51 1564.67 1028.51 1583.52L1008.54 1582.47C1009.5 1564.27 1008.94 1478.47 1008.53 1437.44L1008.52 1436.4L1008.72 1435.38L1044.82 1255.3C1011.02 1238.13 987.698 1202.03 987.611 1160.23C987.611 1160.06 987.611 1159.89 987.611 1159.72L987.61 1159.72L987.579 1144.72ZM941.849 1702.69L959.367 1725.77L976.885 1702.69H941.849Z" fill="#24282D"/>
<path fill-rule="evenodd" clip-rule="evenodd" d="M871.871 1582.94C825.479 1582.94 787.871 1620.54 787.871 1666.94V1679.77H1130.86V1666.94C1130.86 1620.54 1093.25 1582.94 1046.86 1582.94H871.871ZM1130.86 1702.69H787.871V1801.1H1130.86V1702.69ZM787.871 1922.42V1824.02H1130.86V1922.42H787.871ZM1130.86 1945.34H787.871V1958.17C787.871 2004.57 825.479 2042.17 871.871 2042.17H1046.86C1093.25 2042.17 1130.86 2004.57 1130.86 1958.17V1945.34Z" fill="#24282D"/>
<path fill-rule="evenodd" clip-rule="evenodd" d="M1467.62 888.178C1467.62 1142.7 1281.38 1353.72 1037.74 1392.39L1063.75 1262.59C1072.01 1264.82 1080.67 1266 1089.6 1265.98C1145.8 1265.86 1191.27 1218.33 1191.15 1159.81L1191.15 1159.64C1191.14 1159.53 1191.14 1159.42 1191.14 1159.3L1191.68 1159.3L1191.65 1144.12C1192.83 1144.17 1194.02 1144.2 1195.22 1144.19C1241 1144.1 1278.03 1105.41 1277.93 1057.78C1277.89 1039.19 1272.2 1021.98 1262.56 1007.92C1294.11 989.87 1315.47 954.905 1315.38 914.774C1315.27 860.731 1276.32 816.219 1226.1 809.815C1220.76 745.873 1169.19 695.763 1106.47 695.894C1040.3 696.031 986.765 752.041 986.909 820.995C986.909 821.152 986.909 821.308 986.91 821.465L987.612 1159.72H987.613C987.613 1159.89 987.613 1160.06 987.613 1160.23C987.7 1202.03 1011.02 1238.13 1044.82 1255.3L1016.76 1395.28C997.182 1397.56 977.264 1398.73 957.073 1398.73C939.397 1398.73 921.932 1397.83 904.719 1396.08L879.876 1263.51C912.548 1245.93 934.915 1210.47 935 1169.53L935.001 1169.3L935.001 1169.15L935 1169.02H935.001L935.703 830.763C935.704 830.606 935.705 830.45 935.705 830.293C935.848 761.339 882.319 705.329 816.143 705.191C753.421 705.061 701.85 755.171 696.517 819.113C646.292 825.517 607.343 870.029 607.231 924.072C607.147 964.203 628.501 999.168 660.056 1017.22C650.412 1031.28 644.724 1048.48 644.686 1067.07C644.587 1114.71 681.618 1153.4 727.397 1153.49C728.593 1153.5 729.784 1153.47 730.968 1153.42L730.937 1168.6L731.47 1168.6C731.469 1168.77 731.468 1168.94 731.468 1169.11C731.346 1227.63 776.81 1275.16 833.014 1275.28C842.711 1275.3 852.095 1273.91 860.985 1271.29L883.893 1393.52C636.593 1358.03 446.523 1145.3 446.523 888.178C446.523 606.21 675.104 377.629 957.073 377.629C1239.04 377.629 1467.62 606.21 1467.62 888.178Z" fill="#24282D"/>
<path d="M496.703 1359.59C506.859 1359.59 516.82 1360.76 526.586 1363.1C536.547 1365.45 546.02 1368.96 555.004 1373.65C563.988 1378.14 571.898 1384.2 578.734 1391.82C585.766 1399.43 589.574 1408.51 590.16 1419.06V1431.37V1524.82C588.988 1536.54 582.543 1542.89 570.824 1543.87C565.355 1543.87 560.57 1542.11 556.469 1538.59C552.562 1534.88 550.609 1530.29 550.609 1524.82V1428.14C550.219 1422.09 547.875 1417.11 543.578 1413.2C539.477 1409.1 534.789 1405.88 529.516 1403.53C524.438 1401.19 519.066 1399.43 513.402 1398.26C507.934 1397.09 502.367 1396.5 496.703 1396.5C491.039 1396.5 485.375 1397.09 479.711 1398.26C474.242 1399.43 468.871 1401.19 463.598 1403.53C458.52 1405.88 453.832 1409.1 449.535 1413.2C445.434 1417.11 443.188 1422.09 442.797 1428.14V1524.82C441.82 1536.54 435.473 1542.89 423.754 1543.87C418.285 1543.87 413.5 1542.11 409.398 1538.59C405.492 1534.88 403.539 1530.29 403.539 1524.82V1431.37V1419.06C404.125 1408.51 407.836 1399.43 414.672 1391.82C421.508 1384.2 429.418 1378.14 438.402 1373.65C447.387 1368.96 456.762 1365.45 466.527 1363.1C476.488 1360.76 486.547 1359.59 496.703 1359.59Z" fill="#362D3C"/>
<path d="M1394.62 1406.76C1387.2 1407.15 1380.95 1409.98 1375.88 1415.25C1370.99 1420.53 1367.48 1426.58 1365.33 1433.42C1363.18 1440.06 1362.11 1446.89 1362.11 1453.92C1362.11 1460.96 1363.08 1467.89 1365.04 1474.73C1367.18 1481.56 1370.8 1487.62 1375.88 1492.89C1380.95 1497.97 1387.2 1500.7 1394.62 1501.09H1491.3C1503.61 1502.26 1510.35 1509 1511.52 1521.31C1511.32 1526.78 1509.27 1531.37 1505.37 1535.08C1501.46 1538.59 1496.77 1540.35 1491.3 1540.35H1397.85H1384.37C1370.7 1539.57 1359.47 1534.39 1350.68 1524.82C1341.89 1515.06 1335.54 1504.02 1331.64 1491.72C1327.93 1479.41 1326.07 1466.82 1326.07 1453.92C1326.07 1444.35 1327.14 1434.88 1329.29 1425.51C1331.44 1416.13 1334.76 1407.25 1339.25 1398.85C1343.94 1390.25 1350.09 1382.93 1357.71 1376.87C1365.52 1370.82 1374.41 1367.69 1384.37 1367.5H1389.94H1491.3C1503.61 1368.67 1510.35 1375.41 1511.52 1387.71C1511.52 1393.18 1509.47 1397.77 1505.37 1401.48C1501.46 1405 1496.77 1406.76 1491.3 1406.76H1394.62Z" fill="#362D3C"/>
<path d="M996.5 156.362C1010.17 157.144 1021.4 162.417 1030.19 172.183C1038.98 181.753 1045.33 192.69 1049.23 204.995C1053.14 217.3 1055.09 229.897 1055.09 242.788C1055.09 255.679 1053.14 268.276 1049.23 280.581C1045.52 292.886 1039.18 303.921 1030.19 313.687C1021.4 323.257 1010.17 328.433 996.5 329.214H888.688C883.414 329.019 878.922 327.163 875.211 323.647C871.695 319.937 869.84 315.444 869.645 310.171V237.515C869.84 232.046 871.891 227.554 875.797 224.038C879.703 220.327 884.391 218.472 889.859 218.472C895.133 218.667 899.625 220.62 903.336 224.331C907.047 227.847 909 232.241 909.195 237.515V282.046C909.195 287.319 911.93 289.956 917.398 289.956H986.539C993.961 289.565 1000.11 286.733 1005 281.46C1009.88 276.187 1013.39 270.229 1015.54 263.589C1017.89 256.753 1019.06 249.819 1019.06 242.788C1019.06 235.757 1017.89 228.921 1015.54 222.28C1013.39 215.444 1009.88 209.39 1005 204.116C1000.11 198.843 993.961 196.011 986.539 195.62H888.688C876.969 194.644 870.621 188.296 869.645 176.577C869.645 171.108 871.402 166.421 874.918 162.515C878.629 158.608 883.219 156.558 888.688 156.362H996.5Z" fill="#362D3C"/>
</svg>
