<svg width="1919" height="2043" viewBox="0 0 1919 2043" fill="none" xmlns="http://www.w3.org/2000/svg">
<circle cx="1630.28" cy="1594.12" r="49.9429" fill="#F0F7F9"/>
<circle cx="951.888" cy="50.7476" r="49.9429" fill="#F0F7F9"/>
<circle cx="308.779" cy="329.753" r="49.9429" fill="#F0F7F9"/>
<circle cx="1625.45" cy="345.164" r="49.9429" fill="#F0F7F9"/>
<circle cx="308.779" cy="1600.28" r="49.9429" fill="#F0F7F9"/>
<circle cx="1868.5" cy="993.643" r="49.9429" fill="#F0F7F9"/>
<path fill-rule="evenodd" clip-rule="evenodd" d="M871.18 1583.74C824.788 1583.74 787.18 1621.35 787.18 1667.74V1680.57H1130.17V1667.74C1130.17 1621.35 1092.56 1583.74 1046.17 1583.74H871.18ZM1130.17 1703.49H787.18V1801.9H1130.17V1703.49ZM787.18 1923.23V1824.82H1130.17V1923.23H787.18ZM1130.17 1946.15H787.18V1958.98C787.18 2005.37 824.788 2042.98 871.18 2042.98H1046.17C1092.56 2042.98 1130.17 2005.37 1130.17 1958.98V1946.15Z" fill="#F0F7F9"/>
<path fill-rule="evenodd" clip-rule="evenodd" d="M888.814 1315.71C911.351 1316.59 934.132 1317.12 957.127 1317.3C982.347 1317.5 1007.32 1317.27 1031.99 1316.63L1024.94 1351.81C1002.46 1352.32 979.749 1352.48 956.851 1352.3C936.209 1352.14 915.726 1351.7 895.424 1350.98L888.814 1315.71ZM868.299 1314.82C669.432 1305.22 490.516 1269.11 352.055 1216.06C352.291 1217.76 352.413 1219.51 352.413 1221.28C352.413 1232.24 347.747 1242.12 340.293 1249.03C484.717 1304.25 670.162 1341.05 874.923 1350.16L868.299 1314.82ZM1045.45 1351.26L1052.52 1316C1251.42 1308.94 1430.5 1275.07 1569 1223.68C1568.74 1225.47 1568.6 1227.3 1568.6 1229.17C1568.6 1240.04 1573.19 1249.83 1580.53 1256.74C1436.01 1310.26 1250.33 1344.76 1045.45 1351.26ZM292.084 1190.86C222.341 1158.72 167.297 1122.4 129.177 1084.12C86.9475 1041.72 67.3766 999.014 67.7033 957.646C68.0299 916.278 88.2728 873.886 131.166 832.156C169.665 794.702 224.861 759.45 294.534 728.54C284.298 722.132 277.347 710.962 276.785 698.133C125.903 765.841 33.4988 856.768 32.7044 957.37C31.9028 1058.89 124.528 1152.03 276.763 1222.34C276.753 1221.98 276.748 1221.63 276.748 1221.28C276.748 1208.81 282.78 1197.75 292.084 1190.86ZM1644.24 1230.71C1794.41 1163.06 1886.33 1072.35 1887.12 972.013C1887.92 870.427 1795.17 777.231 1642.75 706.905C1638.99 719.76 1628.59 729.78 1615.52 733.001C1691.07 766.482 1750.33 804.774 1790.65 845.26C1832.88 887.662 1852.45 930.369 1852.12 971.737C1851.79 1013.1 1831.55 1055.5 1788.66 1097.23C1750.91 1133.95 1697.1 1168.57 1629.33 1199.04C1638.41 1205.95 1644.27 1216.87 1644.27 1229.17C1644.27 1229.68 1644.26 1230.2 1644.24 1230.71ZM962.973 577.08C1197.06 578.929 1410.6 616.881 1573.3 677.992C1570.31 683.409 1568.6 689.638 1568.6 696.265C1568.6 703.385 1570.57 710.045 1573.99 715.733C1414.54 653.505 1200.05 613.953 962.696 612.079C726.071 610.211 511.579 646.143 351.319 705.518C352.034 702.612 352.413 699.575 352.413 696.449C352.413 686.809 348.807 678.011 342.871 671.33C507.539 610.987 724.928 575.201 962.973 577.08Z" fill="#F0F7F9"/>
<path fill-rule="evenodd" clip-rule="evenodd" d="M713.83 324.222C650.046 479.711 612.078 687.917 607.68 909.184C606.939 914.303 606.55 919.543 606.539 924.876C606.508 939.859 609.465 954.122 614.825 967.053L607.299 967.104L572.3 967.337C572.221 955.646 572.236 943.977 572.342 932.336C574.463 699.114 613.319 477.021 681.449 310.938C752.979 136.566 850.917 38.2188 953.719 37.5319C1056.52 36.8451 1155.76 133.875 1229.62 307.276C1299.96 472.433 1341.78 693.987 1347.02 927.16C1347.28 938.799 1347.45 950.467 1347.53 962.158L1312.53 962.391L1304.33 962.446C1311 948.307 1314.73 932.396 1314.69 915.578C1314.67 905.419 1313.28 895.597 1310.69 886.302C1301.76 671.934 1261.47 471.371 1197.42 320.991C1161.63 236.969 1120.62 173.763 1078.06 132.147C1035.62 90.657 993.511 72.2669 953.953 72.5312C914.395 72.7955 872.536 91.7466 830.657 133.8C788.652 175.981 748.49 239.73 713.83 324.222ZM986.441 929.569L959.68 929.748L934.807 929.914L934.735 964.916L959.914 964.747L986.514 964.57L986.441 929.569Z" fill="#F0F7F9"/>
<path fill-rule="evenodd" clip-rule="evenodd" d="M1248.83 342.366C1085.2 407.74 893.161 536.169 712.908 713.089C546.19 876.724 420.759 1051.21 348.729 1204.97C343.384 1193.8 332.715 1185.66 320.006 1183.83C394.617 1027.07 521.65 851.768 688.391 688.11C1053.86 329.397 1471.7 162.456 1621.66 315.239C1691.8 386.707 1690.91 515.474 1632.68 669.013C1625.88 662.462 1616.63 658.433 1606.44 658.433C1603.88 658.433 1601.39 658.686 1598.97 659.168C1625.73 589.279 1639.54 526.381 1640.35 473.428C1641.26 413.592 1625.66 369.28 1596.68 339.755C1567.7 310.231 1523.69 293.809 1463.84 293.601C1403.82 293.392 1330.72 309.648 1248.83 342.366ZM290.891 1250.78C228.986 1408.59 226.549 1541.29 298.168 1614.26C402.332 1720.38 635.748 1672.24 891.085 1512.72C891.13 1498.71 891.212 1484.34 891.306 1471.13C814.806 1520.38 740.35 1559.42 670.998 1587.13C589.109 1619.85 516.003 1636.1 455.981 1635.89C396.138 1635.69 352.125 1619.26 323.147 1589.74C294.168 1560.21 278.57 1515.9 279.479 1456.07C280.332 1399.86 295.837 1332.46 325.923 1257.38C322.342 1258.51 318.532 1259.11 314.58 1259.11C305.613 1259.11 297.375 1255.99 290.891 1250.78ZM911.407 1457.98C911.303 1470.77 911.204 1485.35 911.136 1499.99C943.462 1479.15 976.092 1456.55 1008.81 1432.29L1019.19 1380.53C983.081 1408.45 947.053 1434.31 911.407 1457.98ZM1231.43 1241.38C1166.29 1305.32 1099.49 1363.16 1032.84 1414.19L1043.4 1361.51C1098.24 1317.72 1153.1 1269.22 1206.92 1216.41C1376.43 1050.03 1503.25 872.436 1574.67 716.818C1581.21 726.908 1592.43 733.685 1605.25 734.079C1531.46 893.758 1402.29 1073.68 1231.43 1241.38Z" fill="#F0F7F9"/>
<path fill-rule="evenodd" clip-rule="evenodd" d="M712.21 1215.72C543.729 1049.43 417.675 872.111 346.563 716.667C340.114 726.847 328.939 733.736 316.123 734.25C389.621 893.644 517.929 1073.14 687.623 1240.63C753.021 1305.17 820.121 1363.55 887.076 1415.01L877.301 1362.86C821.921 1318.5 766.521 1269.32 712.21 1215.72ZM901.178 1381.68L910.786 1432.95C943.446 1457.28 976.019 1479.93 1008.29 1500.83C1008.22 1486.21 1008.12 1471.61 1008.02 1458.77C972.681 1435.19 936.966 1409.45 901.178 1381.68ZM1619.85 1616.09C1515.54 1721.77 1282.79 1673.28 1028.34 1513.61C1028.3 1499.62 1028.22 1485.23 1028.12 1471.97C1104.13 1521.13 1178.13 1560.15 1247.1 1587.93C1328.89 1620.87 1401.95 1637.33 1461.98 1637.29C1521.82 1637.25 1565.88 1620.95 1594.94 1591.51C1624 1562.06 1639.72 1517.8 1638.98 1457.96C1638.3 1403.32 1623.81 1338.05 1595.55 1265.41C1599 1266.44 1602.65 1267 1606.44 1267C1615.52 1267 1623.86 1263.8 1630.38 1258.46C1689.64 1413.88 1690.79 1544.22 1619.85 1616.09ZM1572.8 1211.82C1578.45 1200.9 1589.26 1193.07 1602.01 1191.59C1528.25 1033.11 1400.6 855.073 1232.2 688.866C867.732 329.137 450.36 161.035 299.978 313.399C229.364 384.945 230.176 514.429 288.641 668.909C295.413 662.528 304.54 658.616 314.581 658.616C317.292 658.616 319.937 658.902 322.487 659.444C295.409 588.658 281.512 525.009 280.849 471.536C280.107 411.697 295.828 367.429 324.889 337.985C353.949 308.542 398.008 292.242 457.851 292.2C517.873 292.159 590.934 308.618 672.731 341.563C836.176 407.393 1027.86 536.355 1207.62 713.776C1375.74 879.706 1501.61 1056.62 1572.8 1211.82Z" fill="#F0F7F9"/>
<circle cx="1630.28" cy="1594.12" r="49.9429" fill="#F0F7F9"/>
<circle cx="951.888" cy="50.7476" r="49.9429" fill="#F0F7F9"/>
<circle cx="308.779" cy="329.753" r="49.9429" fill="#F0F7F9"/>
<circle cx="1625.45" cy="345.164" r="49.9429" fill="#F0F7F9"/>
<circle cx="308.779" cy="1600.28" r="49.9429" fill="#F0F7F9"/>
<circle cx="1868.5" cy="993.643" r="49.9429" fill="#F0F7F9"/>
<circle cx="49.9429" cy="972.334" r="49.9429" fill="#F0F7F9"/>
<path fill-rule="evenodd" clip-rule="evenodd" d="M891.421 1456.5C855.859 1466.27 829.734 1498.84 829.734 1537.5V1679.31C829.734 1679.73 829.737 1680.15 829.744 1680.57H1087.61C1087.62 1680.15 1087.62 1679.73 1087.62 1679.31V1537.5C1087.62 1499.59 1062.51 1467.55 1028.01 1457.1C1028.37 1501.17 1028.69 1567.93 1027.82 1584.32L1007.85 1583.27C1008.7 1567.12 1008.36 1497.7 1007.98 1453.61C1006.54 1453.54 1005.08 1453.5 1003.62 1453.5H913.734C912.969 1453.5 912.207 1453.51 911.446 1453.53C911.071 1497.62 910.723 1567.11 911.574 1583.27L891.602 1584.32C890.735 1567.85 891.056 1500.57 891.421 1456.5ZM1084.09 1703.49H833.268C843.653 1738.09 875.749 1763.31 913.734 1763.31H1003.62C1041.6 1763.31 1073.7 1738.09 1084.09 1703.49Z" fill="#F0F7F9"/>
<path fill-rule="evenodd" clip-rule="evenodd" d="M986.888 1145.52H934.359L934.308 1169.83L934.307 1169.83C934.307 1170 934.307 1170.17 934.307 1170.34C934.222 1211.27 911.854 1246.74 879.182 1264.32L911.415 1436.31L911.595 1437.27L911.585 1438.25C911.175 1479.27 910.614 1565.07 911.572 1583.27L891.6 1584.32C890.607 1565.47 891.172 1480 891.577 1439.03L860.291 1272.09C851.402 1274.71 842.018 1276.1 832.321 1276.08C776.117 1275.97 730.653 1228.43 730.775 1169.91C730.775 1169.74 730.776 1169.57 730.777 1169.4L730.243 1169.4L730.275 1154.23C729.091 1154.28 727.9 1154.3 726.703 1154.3C713.677 1154.27 701.358 1151.12 690.402 1145.52H517.648L923.761 1680.57H993.591L1399.7 1145.52H1190.95L1190.98 1160.11L1190.45 1160.11C1190.45 1160.28 1190.45 1160.44 1190.45 1160.61C1190.57 1219.13 1145.11 1266.67 1088.91 1266.79C1079.98 1266.8 1071.32 1265.63 1063.06 1263.39L1027.85 1439.09C1028.25 1480.08 1028.81 1565.48 1027.82 1584.32L1007.85 1583.27C1008.81 1565.07 1008.25 1479.27 1007.84 1438.25L1007.83 1437.21L1008.03 1436.18L1044.12 1256.11C1010.33 1238.93 987.007 1202.84 986.92 1161.04C986.92 1160.87 986.92 1160.7 986.92 1160.53L986.919 1160.53L986.888 1145.52ZM941.158 1703.49L958.676 1726.57L976.194 1703.49H941.158Z" fill="#F0F7F9"/>
<path fill-rule="evenodd" clip-rule="evenodd" d="M871.18 1583.74C824.788 1583.74 787.18 1621.35 787.18 1667.74V1680.57H1130.17V1667.74C1130.17 1621.35 1092.56 1583.74 1046.17 1583.74H871.18ZM1130.17 1703.49H787.18V1801.9H1130.17V1703.49ZM787.18 1923.23V1824.82H1130.17V1923.23H787.18ZM1130.17 1946.15H787.18V1958.98C787.18 2005.37 824.788 2042.98 871.18 2042.98H1046.17C1092.56 2042.98 1130.17 2005.37 1130.17 1958.98V1946.15Z" fill="#F0F7F9"/>
<path fill-rule="evenodd" clip-rule="evenodd" d="M1466.93 888.983C1466.93 1143.5 1280.68 1354.52 1037.04 1393.2L1063.06 1263.39C1071.32 1265.63 1079.98 1266.8 1088.9 1266.79C1145.11 1266.67 1190.57 1219.13 1190.45 1160.61L1190.45 1160.45C1190.45 1160.34 1190.45 1160.22 1190.45 1160.11L1190.98 1160.11L1190.95 1144.93C1192.13 1144.98 1193.33 1145 1194.52 1145C1240.3 1144.9 1277.33 1106.21 1277.23 1058.58C1277.19 1039.99 1271.51 1022.79 1261.86 1008.72C1293.42 990.674 1314.77 955.71 1314.69 915.579C1314.58 861.536 1275.63 817.023 1225.4 810.62C1220.07 746.677 1168.5 696.568 1105.78 696.698C1039.6 696.836 986.07 752.846 986.213 821.8C986.214 821.956 986.214 822.113 986.215 822.27L986.917 1160.53H986.918C986.918 1160.7 986.918 1160.87 986.918 1161.04C987.005 1202.84 1010.32 1238.93 1044.12 1256.11L1016.07 1396.08C996.487 1398.36 976.569 1399.53 956.377 1399.53C938.702 1399.53 921.237 1398.63 904.024 1396.88L879.18 1264.32C911.852 1246.74 934.22 1211.27 934.305 1170.34L934.305 1170.11L934.305 1169.95L934.305 1169.83H934.306L935.008 831.567C935.009 831.411 935.01 831.254 935.01 831.098C935.153 762.143 881.623 706.134 815.448 705.996C752.726 705.866 701.155 755.975 695.821 819.918C645.597 826.321 606.648 870.834 606.535 924.876C606.452 965.008 627.806 999.972 659.36 1018.02C649.717 1032.08 644.029 1049.29 643.99 1067.88C643.891 1115.51 680.923 1154.2 726.702 1154.3C727.898 1154.3 729.089 1154.28 730.273 1154.23L730.241 1169.4L730.775 1169.4C730.774 1169.57 730.773 1169.74 730.773 1169.91C730.651 1228.43 776.115 1275.97 832.319 1276.08C842.016 1276.1 851.4 1274.71 860.289 1272.09L883.197 1394.33C635.897 1358.83 445.828 1146.1 445.828 888.983C445.828 607.014 674.409 378.434 956.377 378.434C1238.35 378.434 1466.93 607.014 1466.93 888.983Z" fill="#F0F7F9"/>
</svg>
