<svg width="1920" height="2043" viewBox="0 0 1920 2043" fill="none" xmlns="http://www.w3.org/2000/svg">
<circle cx="1630.92" cy="1594.12" r="49.9429" fill="#F0F7F9"/>
<circle cx="952.533" cy="50.7428" r="49.9429" fill="#F0F7F9"/>
<circle cx="309.427" cy="329.749" r="49.9429" fill="#F0F7F9"/>
<circle cx="1626.1" cy="345.158" r="49.9429" fill="#F0F7F9"/>
<circle cx="309.427" cy="1600.27" r="49.9429" fill="#F0F7F9"/>
<circle cx="1869.15" cy="993.638" r="49.9429" fill="#F0F7F9"/>
<path fill-rule="evenodd" clip-rule="evenodd" d="M871.824 1583.74C825.432 1583.74 787.824 1621.34 787.824 1667.74V1680.57H1130.81V1667.74C1130.81 1621.34 1093.21 1583.74 1046.81 1583.74H871.824ZM1130.81 1703.49H787.824V1801.9H1130.81V1703.49ZM787.824 1923.22V1824.82H1130.81V1923.22H787.824ZM1130.81 1946.14H787.824V1958.97C787.824 2005.37 825.432 2042.97 871.824 2042.97H1046.81C1093.21 2042.97 1130.81 2005.37 1130.81 1958.97V1946.14Z" fill="#F0F7F9"/>
<path fill-rule="evenodd" clip-rule="evenodd" d="M889.459 1315.71C911.996 1316.58 934.776 1317.12 957.772 1317.3C982.992 1317.5 1007.96 1317.27 1032.64 1316.63L1025.59 1351.81C1003.1 1352.31 980.393 1352.48 957.495 1352.3C936.853 1352.13 916.371 1351.69 896.069 1350.98L889.459 1315.71ZM868.943 1314.81C670.077 1305.21 491.16 1269.1 352.7 1216.05C352.935 1217.76 353.057 1219.5 353.057 1221.27C353.057 1232.24 348.392 1242.12 340.938 1249.03C485.361 1304.24 670.807 1341.04 875.567 1350.16L868.943 1314.81ZM1046.1 1351.25L1053.16 1315.99C1252.07 1308.93 1431.15 1275.07 1569.64 1223.68C1569.38 1225.47 1569.25 1227.3 1569.25 1229.16C1569.25 1240.03 1573.83 1249.83 1581.17 1256.73C1436.66 1310.25 1250.97 1344.75 1046.1 1351.25ZM292.729 1190.85C222.985 1158.71 167.942 1122.39 129.821 1084.12C87.592 1041.72 68.0212 999.009 68.3478 957.641C68.6745 916.273 88.9173 873.881 131.811 832.151C170.31 794.697 225.505 759.445 295.179 728.535C284.942 722.127 277.992 710.957 277.43 698.129C126.547 765.836 34.1433 856.763 33.3489 957.365C32.5473 1058.88 125.173 1152.02 277.407 1222.33C277.398 1221.98 277.393 1221.63 277.393 1221.27C277.393 1208.81 283.424 1197.75 292.729 1190.85ZM1644.88 1230.71C1795.05 1163.06 1886.97 1072.34 1887.76 972.008C1888.57 870.422 1795.81 777.226 1643.4 706.9C1639.64 719.755 1629.24 729.775 1616.16 732.996C1691.72 766.477 1750.97 804.769 1791.29 845.255C1833.52 887.658 1853.09 930.364 1852.76 971.732C1852.44 1013.1 1832.2 1055.49 1789.3 1097.22C1751.55 1133.95 1697.74 1168.56 1629.97 1199.04C1639.05 1205.95 1644.91 1216.87 1644.91 1229.16C1644.91 1229.68 1644.9 1230.19 1644.88 1230.71ZM963.617 577.075C1197.7 578.924 1411.25 616.876 1573.95 677.987C1570.95 683.404 1569.25 689.633 1569.25 696.26C1569.25 703.38 1571.21 710.04 1574.63 715.728C1415.18 653.5 1200.69 613.949 963.341 612.074C726.715 610.206 512.224 646.138 351.963 705.513C352.678 702.607 353.057 699.57 353.057 696.444C353.057 686.804 349.452 678.006 343.515 671.325C508.183 610.982 725.572 575.196 963.617 577.075Z" fill="#F0F7F9"/>
<path fill-rule="evenodd" clip-rule="evenodd" d="M714.471 324.217C650.687 479.707 612.719 687.912 608.321 909.179C607.58 914.299 607.19 919.538 607.179 924.871C607.148 939.854 610.105 954.117 615.466 967.048L607.939 967.099L572.94 967.332C572.862 955.641 572.876 943.973 572.982 932.331C575.103 699.109 613.96 477.016 682.089 310.934C753.619 136.561 851.558 38.2139 954.36 37.5271C1057.16 36.8402 1156.41 133.87 1230.26 307.271C1300.6 472.428 1342.42 693.982 1347.66 927.155C1347.92 938.794 1348.09 950.462 1348.17 962.153L1313.17 962.387L1304.97 962.441C1311.64 948.303 1315.37 932.392 1315.33 915.573C1315.31 905.415 1313.92 895.593 1311.33 886.297C1302.41 671.93 1262.11 471.366 1198.06 320.986C1162.27 236.964 1121.26 173.758 1078.7 132.142C1036.26 90.6521 994.152 72.262 954.594 72.5263C915.035 72.7906 873.177 91.7417 831.298 133.795C789.292 175.976 749.13 239.725 714.471 324.217ZM987.082 929.565L960.321 929.743L935.448 929.91L935.375 964.911L960.555 964.743L987.154 964.565L987.082 929.565Z" fill="#F0F7F9"/>
<path fill-rule="evenodd" clip-rule="evenodd" d="M1249.47 342.361C1085.85 407.735 893.805 536.164 713.552 713.084C546.835 876.719 421.403 1051.21 349.373 1204.97C344.028 1193.79 333.36 1185.65 320.651 1183.83C395.261 1027.06 522.295 851.763 689.036 688.105C1054.51 329.392 1472.34 162.452 1622.3 315.234C1692.45 386.702 1691.55 515.47 1633.32 669.009C1626.52 662.457 1617.27 658.428 1607.08 658.428C1604.53 658.428 1602.03 658.681 1599.62 659.163C1626.38 589.274 1640.19 526.376 1640.99 473.424C1641.9 413.587 1626.3 369.275 1597.32 339.751C1568.34 310.226 1524.33 293.804 1464.49 293.596C1404.47 293.387 1331.36 309.643 1249.47 342.361ZM291.535 1250.77C229.63 1408.58 227.194 1541.28 298.813 1614.25C402.976 1720.38 636.393 1672.24 891.729 1512.71C891.775 1498.71 891.856 1484.34 891.951 1471.13C815.451 1520.38 740.994 1559.42 671.642 1587.12C589.753 1619.84 516.647 1636.1 456.626 1635.89C396.783 1635.68 352.769 1619.26 323.791 1589.73C294.813 1560.21 279.215 1515.9 280.123 1456.06C280.977 1399.86 296.481 1332.45 326.568 1257.38C322.987 1258.5 319.177 1259.11 315.225 1259.11C306.258 1259.11 298.019 1255.99 291.535 1250.77ZM912.052 1457.98C911.948 1470.77 911.848 1485.35 911.78 1499.98C944.106 1479.14 976.736 1456.55 1009.46 1432.29L1019.83 1380.53C983.725 1408.45 947.698 1434.3 912.052 1457.98ZM1232.08 1241.38C1166.94 1305.31 1100.14 1363.16 1033.48 1414.18L1044.04 1361.5C1098.89 1317.71 1153.75 1269.22 1207.56 1216.4C1377.07 1050.03 1503.9 872.431 1575.31 716.813C1581.85 726.903 1593.07 733.68 1605.9 734.074C1532.11 893.753 1402.94 1073.68 1232.08 1241.38Z" fill="#F0F7F9"/>
<path fill-rule="evenodd" clip-rule="evenodd" d="M712.854 1215.71C544.374 1049.42 418.32 872.106 347.207 716.663C340.758 726.842 329.584 733.731 316.768 734.245C390.265 893.639 518.574 1073.14 688.268 1240.62C753.665 1305.17 820.765 1363.54 887.721 1415.01L877.946 1362.85C822.565 1318.5 767.166 1269.32 712.854 1215.71ZM901.822 1381.68L911.431 1432.95C944.09 1457.27 976.663 1479.92 1008.93 1500.82C1008.87 1486.2 1008.77 1471.61 1008.67 1458.76C973.325 1435.18 937.611 1409.45 901.822 1381.68ZM1620.49 1616.09C1516.19 1721.77 1283.44 1673.28 1028.98 1513.61C1028.94 1499.62 1028.86 1485.23 1028.77 1471.97C1104.77 1521.13 1178.77 1560.15 1247.74 1587.92C1329.54 1620.87 1402.6 1637.33 1462.62 1637.29C1522.46 1637.25 1566.52 1620.95 1595.58 1591.5C1624.64 1562.06 1640.36 1517.79 1639.62 1457.95C1638.94 1403.31 1624.45 1338.05 1596.19 1265.4C1599.64 1266.44 1603.3 1266.99 1607.08 1266.99C1616.17 1266.99 1624.5 1263.79 1631.02 1258.45C1690.29 1413.87 1691.43 1544.22 1620.49 1616.09ZM1573.45 1211.82C1579.1 1200.89 1589.91 1193.07 1602.66 1191.58C1528.89 1033.1 1401.25 855.069 1232.85 688.861C868.376 329.132 451.005 161.03 300.623 313.394C230.009 384.94 230.82 514.424 289.285 668.905C296.058 662.523 305.185 658.612 315.225 658.612C317.937 658.612 320.582 658.897 323.132 659.439C296.053 588.654 282.157 525.004 281.494 471.531C280.752 411.692 296.473 367.424 325.533 337.981C354.594 308.537 398.652 292.237 458.496 292.195C518.518 292.154 591.578 308.613 673.376 341.558C836.82 407.388 1028.5 536.35 1208.26 713.771C1376.38 879.701 1502.25 1056.61 1573.45 1211.82Z" fill="#F0F7F9"/>
<circle cx="1630.92" cy="1594.12" r="49.9429" fill="#F0F7F9"/>
<circle cx="952.533" cy="50.7428" r="49.9429" fill="#F0F7F9"/>
<circle cx="309.427" cy="329.749" r="49.9429" fill="#F0F7F9"/>
<circle cx="1626.1" cy="345.158" r="49.9429" fill="#F0F7F9"/>
<circle cx="309.427" cy="1600.27" r="49.9429" fill="#F0F7F9"/>
<circle cx="1869.15" cy="993.638" r="49.9429" fill="#F0F7F9"/>
<circle cx="50.5875" cy="972.329" r="49.9429" fill="#F0F7F9"/>
<path fill-rule="evenodd" clip-rule="evenodd" d="M892.061 1456.49C856.5 1466.27 830.375 1498.83 830.375 1537.5V1679.3C830.375 1679.72 830.378 1680.15 830.384 1680.57H1088.25C1088.26 1680.15 1088.26 1679.72 1088.26 1679.3V1537.5C1088.26 1499.59 1063.15 1467.54 1028.65 1457.09C1029.01 1501.17 1029.33 1567.92 1028.46 1584.32L1008.49 1583.27C1009.34 1567.11 1009 1497.7 1008.62 1453.61C1007.18 1453.54 1005.72 1453.5 1004.26 1453.5H914.375C913.61 1453.5 912.847 1453.51 912.087 1453.53C911.711 1497.61 911.364 1567.1 912.215 1583.27L892.242 1584.32C891.375 1567.85 891.696 1500.56 892.061 1456.49ZM1084.73 1703.49H833.909C844.294 1738.09 876.39 1763.3 914.375 1763.3H1004.26C1042.24 1763.3 1074.34 1738.09 1084.73 1703.49Z" fill="#F0F7F9"/>
<path fill-rule="evenodd" clip-rule="evenodd" d="M987.532 1145.52H935.003L934.953 1169.82L934.951 1169.82C934.952 1169.99 934.952 1170.16 934.952 1170.33C934.866 1211.27 912.499 1246.73 879.827 1264.31L912.059 1436.3L912.24 1437.26L912.23 1438.24C911.82 1479.27 911.259 1565.07 912.217 1583.27L892.244 1584.32C891.252 1565.46 891.816 1479.99 892.221 1439.02L860.936 1272.09C852.046 1274.71 842.663 1276.1 832.965 1276.08C776.761 1275.96 731.297 1228.43 731.419 1169.91C731.419 1169.74 731.42 1169.57 731.421 1169.4L730.888 1169.4L730.919 1154.22C729.735 1154.27 728.544 1154.29 727.348 1154.29C714.321 1154.27 702.003 1151.11 691.047 1145.52H518.293L924.405 1680.57H994.235L1400.35 1145.52H1191.6L1191.63 1160.1L1191.09 1160.1C1191.1 1160.27 1191.1 1160.44 1191.1 1160.61C1191.22 1219.13 1145.75 1266.66 1089.55 1266.78C1080.62 1266.8 1071.96 1265.62 1063.71 1263.39L1028.49 1439.09C1028.9 1480.08 1029.46 1565.47 1028.47 1584.32L1008.49 1583.27C1009.45 1565.07 1008.89 1479.27 1008.48 1438.24L1008.47 1437.2L1008.68 1436.18L1044.77 1256.1C1010.97 1238.93 987.651 1202.83 987.564 1161.03C987.564 1160.86 987.564 1160.69 987.565 1160.52L987.563 1160.52L987.532 1145.52ZM941.802 1703.49L959.32 1726.57L976.838 1703.49H941.802Z" fill="#F0F7F9"/>
<path fill-rule="evenodd" clip-rule="evenodd" d="M871.824 1583.74C825.432 1583.74 787.824 1621.34 787.824 1667.74V1680.57H1130.81V1667.74C1130.81 1621.34 1093.21 1583.74 1046.81 1583.74H871.824ZM1130.81 1703.49H787.824V1801.9H1130.81V1703.49ZM787.824 1923.22V1824.82H1130.81V1923.22H787.824ZM1130.81 1946.14H787.824V1958.97C787.824 2005.37 825.432 2042.97 871.824 2042.97H1046.81C1093.21 2042.97 1130.81 2005.37 1130.81 1958.97V1946.14Z" fill="#F0F7F9"/>
<path fill-rule="evenodd" clip-rule="evenodd" d="M1467.57 888.977C1467.57 1143.5 1281.33 1354.52 1037.69 1393.19L1063.71 1263.39C1071.96 1265.62 1080.63 1266.8 1089.55 1266.78C1145.76 1266.66 1191.22 1219.13 1191.1 1160.61L1191.1 1160.44C1191.1 1160.33 1191.1 1160.21 1191.1 1160.1L1191.63 1160.1L1191.6 1144.92C1192.78 1144.97 1193.97 1145 1195.17 1144.99C1240.95 1144.9 1277.98 1106.21 1277.88 1058.57C1277.84 1039.99 1272.15 1022.78 1262.51 1008.72C1294.07 990.669 1315.42 955.704 1315.34 915.573C1315.22 861.53 1276.27 817.018 1226.05 810.614C1220.72 746.672 1169.15 696.562 1106.42 696.692C1040.25 696.83 986.718 752.84 986.862 821.794C986.862 821.951 986.863 822.107 986.863 822.264L987.565 1160.52H987.566C987.566 1160.69 987.566 1160.86 987.566 1161.03C987.653 1202.83 1010.97 1238.93 1044.77 1256.1L1016.72 1396.07C997.136 1398.35 977.218 1399.53 957.026 1399.53C939.35 1399.53 921.885 1398.63 904.673 1396.87L879.829 1264.31C912.501 1246.73 934.868 1211.26 934.953 1170.33L934.954 1170.1L934.954 1169.94L934.953 1169.82H934.955L935.657 831.562C935.657 831.405 935.658 831.248 935.658 831.092C935.802 762.138 882.272 706.128 816.096 705.99C753.374 705.86 701.804 755.969 696.47 819.912C646.245 826.315 607.296 870.828 607.184 924.871C607.1 965.002 628.455 999.966 660.009 1018.02C650.366 1032.08 644.678 1049.28 644.639 1067.87C644.54 1115.51 681.571 1154.2 727.35 1154.29C728.546 1154.29 729.737 1154.27 730.921 1154.22L730.89 1169.4L731.423 1169.4C731.422 1169.57 731.421 1169.74 731.421 1169.91C731.299 1228.43 776.763 1275.96 832.967 1276.08C842.664 1276.1 852.048 1274.71 860.938 1272.09L883.846 1394.32C636.546 1358.83 446.477 1146.1 446.477 888.977C446.477 607.008 675.057 378.428 957.026 378.428C1238.99 378.428 1467.57 607.008 1467.57 888.977Z" fill="#F0F7F9"/>
<path d="M504.684 1360.39C514.84 1360.39 524.801 1361.56 534.566 1363.9C544.527 1366.25 554 1369.76 562.984 1374.45C571.969 1378.94 579.879 1385 586.715 1392.62C593.746 1400.23 597.555 1409.31 598.141 1419.86V1432.17V1525.62C596.969 1537.34 590.523 1543.69 578.805 1544.67C573.336 1544.67 568.551 1542.91 564.449 1539.39C560.543 1535.68 558.59 1531.09 558.59 1525.62V1428.94C558.199 1422.89 555.855 1417.91 551.559 1414C547.457 1409.9 542.77 1406.68 537.496 1404.33C532.418 1401.99 527.047 1400.23 521.383 1399.06C515.914 1397.89 510.348 1397.3 504.684 1397.3C499.02 1397.3 493.355 1397.89 487.691 1399.06C482.223 1400.23 476.852 1401.99 471.578 1404.33C466.5 1406.68 461.812 1409.9 457.516 1414C453.414 1417.91 451.168 1422.89 450.777 1428.94V1525.62C449.801 1537.34 443.453 1543.69 431.734 1544.67C426.266 1544.67 421.48 1542.91 417.379 1539.39C413.473 1535.68 411.52 1531.09 411.52 1525.62V1432.17V1419.86C412.105 1409.31 415.816 1400.23 422.652 1392.62C429.488 1385 437.398 1378.94 446.383 1374.45C455.367 1369.76 464.742 1366.25 474.508 1363.9C484.469 1361.56 494.527 1360.39 504.684 1360.39Z" fill="#F0F7F9"/>
<path d="M1402.6 1407.56C1395.18 1407.95 1388.93 1410.78 1383.85 1416.05C1378.97 1421.33 1375.45 1427.38 1373.3 1434.22C1371.16 1440.86 1370.08 1447.69 1370.08 1454.72C1370.08 1461.76 1371.06 1468.69 1373.01 1475.53C1375.16 1482.36 1378.77 1488.42 1383.85 1493.69C1388.93 1498.77 1395.18 1501.5 1402.6 1501.89H1499.28C1511.59 1503.06 1518.32 1509.8 1519.5 1522.11C1519.3 1527.58 1517.25 1532.17 1513.34 1535.88C1509.44 1539.39 1504.75 1541.15 1499.28 1541.15H1405.82H1392.35C1378.68 1540.37 1367.45 1535.19 1358.66 1525.62C1349.87 1515.86 1343.52 1504.82 1339.61 1492.52C1335.9 1480.21 1334.05 1467.62 1334.05 1454.72C1334.05 1445.15 1335.12 1435.68 1337.27 1426.31C1339.42 1416.93 1342.74 1408.04 1347.23 1399.65C1351.92 1391.05 1358.07 1383.73 1365.69 1377.67C1373.5 1371.62 1382.39 1368.49 1392.35 1368.3H1397.91H1499.28C1511.59 1369.47 1518.32 1376.21 1519.5 1388.51C1519.5 1393.98 1517.45 1398.57 1513.34 1402.28C1509.44 1405.8 1504.75 1407.56 1499.28 1407.56H1402.6Z" fill="#F0F7F9"/>
<path d="M1004.48 157.162C1018.15 157.943 1029.38 163.217 1038.17 172.982C1046.96 182.553 1053.3 193.49 1057.21 205.795C1061.12 218.1 1063.07 230.697 1063.07 243.588C1063.07 256.479 1061.12 269.076 1057.21 281.381C1053.5 293.686 1047.15 304.721 1038.17 314.486C1029.38 324.057 1018.15 329.232 1004.48 330.014H896.664C891.391 329.818 886.898 327.963 883.188 324.447C879.672 320.736 877.816 316.244 877.621 310.971V238.314C877.816 232.846 879.867 228.354 883.773 224.838C887.68 221.127 892.367 219.271 897.836 219.271C903.109 219.467 907.602 221.42 911.312 225.131C915.023 228.646 916.977 233.041 917.172 238.314V282.846C917.172 288.119 919.906 290.756 925.375 290.756H994.516C1001.94 290.365 1008.09 287.533 1012.97 282.26C1017.86 276.986 1021.37 271.029 1023.52 264.389C1025.86 257.553 1027.04 250.619 1027.04 243.588C1027.04 236.557 1025.86 229.721 1023.52 223.08C1021.37 216.244 1017.86 210.189 1012.97 204.916C1008.09 199.643 1001.94 196.811 994.516 196.42H896.664C884.945 195.443 878.598 189.096 877.621 177.377C877.621 171.908 879.379 167.221 882.895 163.314C886.605 159.408 891.195 157.357 896.664 157.162H1004.48Z" fill="#F0F7F9"/>
</svg>
