<svg width="1919" height="2043" viewBox="0 0 1919 2043" fill="none" xmlns="http://www.w3.org/2000/svg">
<circle cx="1630.8" cy="1593.32" r="49.9429" fill="#24282D"/>
<circle cx="952.412" cy="49.9478" r="49.9429" fill="#24282D"/>
<circle cx="309.302" cy="328.954" r="49.9429" fill="#24282D"/>
<circle cx="1625.98" cy="344.363" r="49.9429" fill="#24282D"/>
<circle cx="309.302" cy="1599.48" r="49.9429" fill="#24282D"/>
<circle cx="1869.02" cy="992.843" r="49.9429" fill="#24282D"/>
<path fill-rule="evenodd" clip-rule="evenodd" d="M871.703 1582.94C825.311 1582.94 787.703 1620.55 787.703 1666.94V1679.77H1130.69V1666.94C1130.69 1620.55 1093.08 1582.94 1046.69 1582.94H871.703ZM1130.69 1702.69H787.703V1801.1H1130.69V1702.69ZM787.703 1922.43V1824.02H1130.69V1922.43H787.703ZM1130.69 1945.35H787.703V1958.18C787.703 2004.57 825.311 2042.18 871.703 2042.18H1046.69C1093.08 2042.18 1130.69 2004.57 1130.69 1958.18V1945.35Z" fill="#24282D"/>
<path fill-rule="evenodd" clip-rule="evenodd" d="M889.338 1314.91C911.875 1315.79 934.655 1316.32 957.651 1316.5C982.87 1316.7 1007.84 1316.47 1032.52 1315.83L1025.47 1351.01C1002.98 1351.52 980.272 1351.68 957.374 1351.5C936.732 1351.34 916.249 1350.9 895.947 1350.18L889.338 1314.91ZM868.822 1314.02C669.955 1304.42 491.039 1268.31 352.579 1215.26C352.814 1216.96 352.936 1218.71 352.936 1220.48C352.936 1231.44 348.271 1241.32 340.817 1248.23C485.24 1303.45 670.686 1340.25 875.446 1349.36L868.822 1314.02ZM1045.97 1350.46L1053.04 1315.2C1251.94 1308.14 1431.02 1274.27 1569.52 1222.88C1569.26 1224.67 1569.13 1226.5 1569.13 1228.37C1569.13 1239.24 1573.71 1249.03 1581.05 1255.94C1436.54 1309.46 1250.85 1343.96 1045.97 1350.46ZM292.608 1190.06C222.864 1157.92 167.821 1121.6 129.7 1083.32C87.4709 1040.92 67.9001 998.215 68.2267 956.846C68.5534 915.478 88.7962 873.086 131.69 831.356C170.188 793.902 225.384 758.65 295.058 727.74C284.821 721.332 277.87 710.162 277.308 697.334C126.426 765.041 34.0222 855.968 33.2278 956.57C32.4262 1058.09 125.052 1151.23 277.286 1221.54C277.276 1221.18 277.272 1220.83 277.272 1220.48C277.272 1208.01 283.303 1196.95 292.608 1190.06ZM1644.76 1229.91C1794.93 1162.26 1886.85 1071.55 1887.64 971.213C1888.44 869.627 1795.69 776.431 1643.28 706.105C1639.52 718.96 1629.11 728.98 1616.04 732.201C1691.6 765.682 1750.85 803.974 1791.17 844.46C1833.4 886.863 1852.97 929.569 1852.64 970.937C1852.32 1012.31 1832.07 1054.7 1789.18 1096.43C1751.43 1133.16 1697.62 1167.77 1629.85 1198.24C1638.93 1205.15 1644.79 1216.07 1644.79 1228.37C1644.79 1228.88 1644.78 1229.4 1644.76 1229.91ZM963.496 576.281C1197.58 578.129 1411.12 616.081 1573.82 677.192C1570.83 682.609 1569.13 688.838 1569.13 695.465C1569.13 702.585 1571.09 709.246 1574.51 714.933C1415.06 652.705 1200.57 613.154 963.22 611.279C726.594 609.411 512.102 645.343 351.842 704.718C352.557 701.813 352.936 698.775 352.936 695.649C352.936 686.009 349.331 677.211 343.394 670.53C508.062 610.187 725.451 574.401 963.496 576.281Z" fill="#24282D"/>
<path fill-rule="evenodd" clip-rule="evenodd" d="M714.353 323.422C650.569 478.912 612.601 687.117 608.203 908.384C607.463 913.504 607.073 918.744 607.062 924.076C607.031 939.059 609.988 953.322 615.349 966.253L607.822 966.304L572.823 966.538C572.745 954.846 572.759 943.178 572.865 931.536C574.986 698.314 613.843 476.221 681.972 310.139C753.502 135.766 851.441 37.419 954.243 36.7321C1057.04 36.0453 1156.29 133.075 1230.14 306.476C1300.48 471.633 1342.31 693.187 1347.54 926.36C1347.8 937.999 1347.97 949.667 1348.05 961.358L1313.05 961.592L1304.85 961.646C1311.52 947.508 1315.25 931.597 1315.21 914.778C1315.19 904.62 1313.8 894.798 1311.22 885.502C1302.29 671.135 1261.99 470.571 1197.94 320.191C1162.16 236.169 1121.15 172.963 1078.58 131.347C1036.14 89.8571 994.035 71.4671 954.476 71.7314C914.918 71.9957 873.06 90.9468 831.181 133C789.175 175.181 749.013 238.93 714.353 323.422ZM986.964 928.77L960.204 928.948L935.331 929.115L935.258 964.116L960.438 963.948L987.037 963.77L986.964 928.77Z" fill="#24282D"/>
<path fill-rule="evenodd" clip-rule="evenodd" d="M1249.35 341.566C1085.72 406.94 893.684 535.369 713.431 712.289C546.713 875.924 421.282 1050.41 349.252 1204.17C343.907 1193 333.239 1184.86 320.53 1183.03C395.14 1026.27 522.174 850.968 688.915 687.311C1054.39 328.597 1472.22 161.657 1622.18 314.439C1692.33 385.907 1691.43 514.675 1633.2 668.214C1626.4 661.662 1617.15 657.633 1606.96 657.633C1604.41 657.633 1601.91 657.886 1599.5 658.369C1626.26 588.479 1640.07 525.581 1640.87 472.629C1641.78 412.792 1626.18 368.48 1597.2 338.956C1568.22 309.431 1524.21 293.009 1464.37 292.801C1404.35 292.592 1331.24 308.848 1249.35 341.566ZM291.414 1249.98C229.509 1407.79 227.072 1540.49 298.691 1613.46C402.855 1719.58 636.272 1671.44 891.608 1511.92C891.654 1497.91 891.735 1483.54 891.829 1470.33C815.33 1519.58 740.873 1558.62 671.521 1586.33C589.632 1619.05 516.526 1635.3 456.505 1635.09C396.661 1634.89 352.648 1618.46 323.67 1588.94C294.692 1559.41 279.093 1515.1 280.002 1455.27C280.856 1399.06 296.36 1331.66 326.447 1256.58C322.866 1257.71 319.056 1258.31 315.104 1258.31C306.137 1258.31 297.898 1255.19 291.414 1249.98ZM911.931 1457.18C911.826 1469.97 911.727 1484.55 911.659 1499.19C943.985 1478.35 976.615 1455.75 1009.33 1431.49L1019.71 1379.73C983.604 1407.65 947.576 1433.51 911.931 1457.18ZM1231.96 1240.58C1166.82 1304.52 1100.01 1362.36 1033.36 1413.39L1043.92 1360.71C1098.76 1316.92 1153.63 1268.42 1207.44 1215.61C1376.95 1049.23 1503.78 871.637 1575.19 716.018C1581.73 726.108 1592.95 732.885 1605.78 733.279C1531.98 892.958 1402.82 1072.88 1231.96 1240.58Z" fill="#24282D"/>
<path fill-rule="evenodd" clip-rule="evenodd" d="M712.733 1214.92C544.252 1048.63 418.199 871.311 347.086 715.868C340.637 726.047 329.462 732.936 316.647 733.45C390.144 892.844 518.453 1072.34 688.147 1239.83C753.544 1304.37 820.644 1362.75 887.599 1414.21L877.825 1362.06C822.444 1317.7 767.045 1268.52 712.733 1214.92ZM901.701 1380.88L911.31 1432.15C943.969 1456.48 976.542 1479.13 1008.81 1500.03C1008.75 1485.41 1008.65 1470.81 1008.54 1457.97C973.204 1434.39 937.49 1408.65 901.701 1380.88ZM1620.37 1615.29C1516.07 1720.97 1283.32 1672.48 1028.86 1512.81C1028.82 1498.82 1028.74 1484.43 1028.65 1471.17C1104.65 1520.33 1178.65 1559.35 1247.62 1587.13C1329.42 1620.07 1402.48 1636.53 1462.5 1636.49C1522.34 1636.45 1566.4 1620.15 1595.46 1590.71C1624.52 1561.26 1640.24 1517 1639.5 1457.16C1638.82 1402.52 1624.33 1337.25 1596.07 1264.61C1599.52 1265.64 1603.18 1266.2 1606.96 1266.2C1616.04 1266.2 1624.38 1263 1630.9 1257.66C1690.17 1413.08 1691.31 1543.42 1620.37 1615.29ZM1573.33 1211.02C1578.97 1200.1 1589.79 1192.27 1602.53 1190.79C1528.77 1032.31 1401.13 854.274 1232.73 688.066C868.255 328.337 450.884 160.235 300.502 312.599C229.888 384.145 230.699 513.629 289.164 668.11C295.937 661.728 305.064 657.817 315.104 657.817C317.816 657.817 320.461 658.102 323.01 658.644C295.932 587.859 282.036 524.209 281.373 470.737C280.63 410.897 296.352 366.629 325.412 337.186C354.473 307.742 398.531 291.442 458.375 291.4C518.397 291.359 591.457 307.818 673.255 340.763C836.699 406.593 1028.38 535.556 1208.14 712.976C1376.26 878.906 1502.13 1055.82 1573.33 1211.02Z" fill="#24282D"/>
<circle cx="1630.8" cy="1593.32" r="49.9429" fill="#24282D"/>
<circle cx="952.412" cy="49.9478" r="49.9429" fill="#24282D"/>
<circle cx="309.302" cy="328.954" r="49.9429" fill="#24282D"/>
<circle cx="1625.98" cy="344.363" r="49.9429" fill="#24282D"/>
<circle cx="309.302" cy="1599.48" r="49.9429" fill="#24282D"/>
<circle cx="1869.02" cy="992.843" r="49.9429" fill="#24282D"/>
<circle cx="50.4664" cy="971.534" r="49.9429" fill="#24282D"/>
<path fill-rule="evenodd" clip-rule="evenodd" d="M891.944 1455.7C856.383 1465.47 830.258 1498.04 830.258 1536.7V1678.51C830.258 1678.93 830.261 1679.35 830.267 1679.77H1088.13C1088.14 1679.35 1088.14 1678.93 1088.14 1678.51V1536.7C1088.14 1498.79 1063.03 1466.75 1028.53 1456.3C1028.9 1500.37 1029.21 1567.13 1028.35 1583.52L1008.38 1582.47C1009.23 1566.32 1008.88 1496.9 1008.5 1452.81C1007.06 1452.74 1005.61 1452.7 1004.14 1452.7H914.258C913.493 1452.7 912.73 1452.71 911.97 1452.73C911.594 1496.82 911.247 1566.31 912.098 1582.47L892.125 1583.52C891.258 1567.05 891.579 1499.77 891.944 1455.7ZM1084.61 1702.69H833.791C844.177 1737.3 876.273 1762.51 914.258 1762.51H1004.14C1042.13 1762.51 1074.22 1737.3 1084.61 1702.69Z" fill="#24282D"/>
<path fill-rule="evenodd" clip-rule="evenodd" d="M987.411 1144.72H934.882L934.832 1169.03L934.83 1169.03C934.831 1169.2 934.831 1169.37 934.83 1169.54C934.745 1210.47 912.378 1245.94 879.706 1263.52L911.938 1435.51L912.119 1436.47L912.109 1437.45C911.699 1478.47 911.138 1564.27 912.096 1582.47L892.123 1583.52C891.131 1564.67 891.695 1479.2 892.1 1438.23L860.815 1271.29C851.925 1273.91 842.541 1275.3 832.844 1275.28C776.64 1275.17 731.176 1227.63 731.298 1169.11C731.298 1168.94 731.299 1168.77 731.3 1168.6L730.767 1168.6L730.798 1153.43C729.614 1153.48 728.423 1153.5 727.227 1153.5C714.2 1153.47 701.882 1150.32 690.926 1144.72H518.172L924.284 1679.77H994.114L1400.23 1144.72H1191.48L1191.51 1159.31L1190.97 1159.31C1190.97 1159.48 1190.98 1159.65 1190.98 1159.81C1191.1 1218.33 1145.63 1265.87 1089.43 1265.99C1080.5 1266 1071.84 1264.83 1063.58 1262.59L1028.37 1438.29C1028.77 1479.28 1029.34 1564.68 1028.35 1583.52L1008.37 1582.47C1009.33 1564.27 1008.77 1478.47 1008.36 1437.45L1008.35 1436.41L1008.55 1435.38L1044.65 1255.31C1010.85 1238.13 987.53 1202.04 987.443 1160.24C987.443 1160.07 987.443 1159.9 987.443 1159.73L987.442 1159.73L987.411 1144.72ZM941.681 1702.69L959.199 1725.77L976.717 1702.69H941.681Z" fill="#24282D"/>
<path fill-rule="evenodd" clip-rule="evenodd" d="M871.703 1582.94C825.311 1582.94 787.703 1620.55 787.703 1666.94V1679.77H1130.69V1666.94C1130.69 1620.55 1093.08 1582.94 1046.69 1582.94H871.703ZM1130.69 1702.69H787.703V1801.1H1130.69V1702.69ZM787.703 1922.43V1824.02H1130.69V1922.43H787.703ZM1130.69 1945.35H787.703V1958.18C787.703 2004.57 825.311 2042.18 871.703 2042.18H1046.69C1093.08 2042.18 1130.69 2004.57 1130.69 1958.18V1945.35Z" fill="#24282D"/>
<path fill-rule="evenodd" clip-rule="evenodd" d="M1467.45 888.182C1467.45 1142.7 1281.21 1353.72 1037.57 1392.39L1063.58 1262.59C1071.84 1264.83 1080.5 1266 1089.43 1265.99C1145.63 1265.87 1191.1 1218.33 1190.97 1159.81L1190.97 1159.65C1190.97 1159.53 1190.97 1159.42 1190.97 1159.31L1191.51 1159.3L1191.47 1144.13C1192.66 1144.18 1193.85 1144.2 1195.04 1144.2C1240.82 1144.1 1277.85 1105.41 1277.76 1057.78C1277.72 1039.19 1272.03 1021.99 1262.39 1007.92C1293.94 989.874 1315.29 954.909 1315.21 914.778C1315.1 860.735 1276.15 816.223 1225.93 809.819C1220.59 745.877 1169.02 695.767 1106.3 695.897C1040.12 696.035 986.593 752.045 986.737 820.999C986.737 821.156 986.738 821.312 986.738 821.469L987.44 1159.73H987.441C987.441 1159.9 987.441 1160.07 987.441 1160.24C987.528 1202.03 1010.85 1238.13 1044.65 1255.31L1016.59 1395.28C997.011 1397.56 977.093 1398.73 956.901 1398.73C939.225 1398.73 921.76 1397.83 904.548 1396.08L879.704 1263.52C912.376 1245.94 934.743 1210.47 934.828 1169.53L934.829 1169.31L934.829 1169.15L934.828 1169.03H934.83L935.532 830.767C935.532 830.61 935.533 830.454 935.533 830.297C935.677 761.343 882.147 705.333 815.971 705.195C753.249 705.065 701.679 755.174 696.345 819.117C646.12 825.521 607.171 870.033 607.059 924.076C606.975 964.207 628.33 999.172 659.884 1017.22C650.241 1031.28 644.553 1048.49 644.514 1067.08C644.415 1114.71 681.446 1153.4 727.225 1153.5C728.421 1153.5 729.612 1153.48 730.796 1153.43L730.765 1168.6L731.298 1168.6C731.297 1168.77 731.296 1168.94 731.296 1169.11C731.174 1227.63 776.638 1275.17 832.842 1275.28C842.539 1275.3 851.923 1273.91 860.813 1271.29L883.721 1393.53C636.421 1358.03 446.352 1145.3 446.352 888.182C446.352 606.213 674.932 377.633 956.901 377.633C1238.87 377.633 1467.45 606.213 1467.45 888.182Z" fill="#24282D"/>
</svg>
